{"glyphs":{":":{"x_min":0,"x_max":288,"ha":288,"o":"m 220 429 l 220 412 q 220 382 205 364 q 189 346 159 346 l 144 346 q 138 348 134 348 q 98 348 98 397 l 98 404 q 98 437 113 454 q 128 472 149 472 q 153 473 156 473 l 164 474 l 173 474 l 187 472 q 220 472 220 429 z m 201 70 q 201 43 186 23 q 172 3 138 3 l 125 3 q 103 3 90 13 q 78 23 78 48 l 78 63 q 78 93 94 112 q 109 130 141 130 l 153 130 l 167 128 q 199 128 199 93 l 201 81 z"},"$":{"x_min":0,"x_max":550,"ha":550,"o":"m 446 542 q 430 542 398 568 q 366 593 340 593 q 308 593 308 444 q 308 413 324 394 q 330 388 378 356 q 427 323 452 289 q 476 255 476 213 l 476 198 q 476 129 427 77 q 403 51 369 36 q 364 34 333 23 q 303 13 295 5 q 287 -3 283 -16 l 280 -28 q 275 -46 272 -50 q 265 -62 245 -62 q 232 -62 224 -36 q 215 -10 203 1 q 191 11 154 25 q 117 40 95 64 q 72 88 72 120 q 72 151 100 151 q 111 151 151 117 q 190 83 227 83 q 245 83 252 115 q 263 164 263 249 q 263 288 240 310 q 233 316 208 333 q 184 350 179 353 q 101 410 101 482 q 101 555 148 604 q 172 629 197 640 q 222 650 244 657 q 265 664 269 668 q 273 671 286 696 q 298 721 310 721 l 318 721 q 328 721 341 707 q 378 667 384 664 q 434 635 442 626 q 469 600 469 571 q 469 542 446 542 z m 268 596 q 268 603 261 603 l 259 603 q 255 602 253 602 q 230 602 206 575 q 183 548 183 529 l 181 517 l 181 501 q 181 472 204 440 q 227 408 249 408 l 252 408 q 261 408 261 494 l 261 509 l 261 517 q 261 519 261 521 l 262 527 q 262 529 262 532 l 262 535 q 262 537 262 540 l 266 573 l 266 575 l 268 592 z m 301 66 l 309 66 q 338 66 366 99 q 394 131 394 166 l 394 183 q 394 213 366 245 q 337 278 316 278 l 312 278 q 304 278 304 204 l 304 196 l 304 188 l 304 179 l 303 174 l 303 168 l 303 166 q 303 163 303 160 l 301 138 l 300 135 l 300 130 l 298 117 l 297 106 q 295 96 295 90 l 294 80 l 294 75 q 294 66 301 66 z"},"?":{"x_min":0,"x_max":473,"ha":473,"o":"m 219 195 q 182 195 182 262 q 182 297 200 329 q 219 361 254 398 q 290 435 307 466 q 324 497 324 531 q 324 565 302 586 q 280 607 245 607 q 210 607 168 576 q 126 545 108 545 q 81 545 81 585 q 81 625 134 657 q 186 690 251 690 l 261 690 q 331 690 380 646 q 430 602 430 540 l 430 521 q 430 445 343 365 q 281 308 270 293 q 258 279 253 237 q 248 195 226 195 z m 264 48 q 264 23 245 10 q 227 -3 203 -3 l 189 -3 q 164 -3 154 9 q 145 21 145 46 l 145 48 q 145 82 159 99 q 173 116 194 116 l 200 117 l 210 118 l 218 118 l 232 116 q 264 116 264 83 l 265 73 l 265 59 q 264 53 264 48 z"},"<":{"x_min":0,"x_max":573,"ha":573,"o":"m 500 64 q 500 42 489 42 q 462 42 107 241 q 68 263 68 287 l 68 295 q 68 318 98 335 q 127 352 239 408 q 350 463 458 521 q 486 535 496 535 q 507 535 507 511 q 507 476 472 452 q 437 428 304 361 q 171 295 171 290 q 171 286 303 216 q 434 147 455 134 q 500 105 500 64 z"},"'":{"x_min":0,"x_max":245,"ha":245,"o":"m 191 623 q 191 587 163 467 q 157 442 133 442 l 124 442 q 102 442 102 569 l 102 579 q 102 584 102 589 l 101 599 q 101 602 101 605 l 101 615 l 101 658 q 101 681 109 692 q 117 703 139 703 l 145 704 l 164 704 q 196 704 196 677 l 196 671 l 195 668 l 193 643 q 191 626 191 623 z"},"=":{"x_min":0,"x_max":579,"ha":579,"o":"m 506 427 q 533 427 533 407 l 533 387 q 533 366 524 362 q 514 358 422 358 l 401 358 l 396 359 l 259 359 l 243 358 l 91 358 q 64 358 64 383 l 64 389 l 64 394 q 64 423 85 426 q 91 427 301 427 l 345 427 z m 504 243 q 530 243 530 217 l 530 212 l 530 207 q 530 179 513 176 q 504 175 292 175 l 282 174 l 87 174 q 61 174 61 190 l 61 215 q 61 238 78 241 q 87 242 304 242 l 332 243 z"},"a":{"x_min":0,"x_max":516,"ha":516,"o":"m 440 44 q 440 10 378 10 q 361 10 342 23 q 322 37 314 37 q 307 37 265 17 q 223 -3 188 -3 l 177 -3 q 121 -3 92 31 q 62 64 62 113 l 62 124 q 62 227 197 275 q 217 283 253 292 q 290 302 303 309 q 334 325 334 359 q 334 392 311 410 q 287 428 251 428 q 216 428 173 399 q 129 370 110 370 q 74 370 74 405 q 74 440 136 467 q 198 494 256 494 l 268 494 q 347 494 392 449 q 427 413 427 338 q 427 321 425 293 l 420 237 q 415 162 415 137 q 415 111 428 84 q 440 57 440 44 z m 331 223 q 331 243 315 243 l 310 243 q 246 243 184 200 q 142 170 142 127 l 142 122 q 142 96 159 82 q 177 69 196 69 l 208 69 q 252 69 296 108 q 328 136 328 185 l 330 197 l 331 215 z"},"L":{"x_min":0,"x_max":546,"ha":546,"o":"m 146 688 l 169 688 q 213 688 235 679 q 267 664 267 641 q 267 634 251 598 q 236 562 230 521 q 207 357 207 149 q 207 106 223 93 q 240 80 295 80 q 351 80 416 102 q 482 125 488 125 q 513 125 513 86 q 513 47 504 33 q 494 18 477 12 q 460 6 310 6 l 285 6 l 246 5 l 208 5 q 133 5 100 12 q 66 18 66 37 l 66 46 q 66 55 74 73 q 82 91 88 107 q 94 124 98 168 q 123 413 123 546 q 123 574 110 605 q 98 635 98 648 q 98 662 112 675 q 125 688 146 688 z"},"3":{"x_min":0,"x_max":547,"ha":547,"o":"m 125 543 q 104 543 104 562 q 104 603 163 635 q 222 668 293 668 l 309 668 q 378 668 420 634 q 462 600 462 533 q 462 467 399 406 q 364 372 364 366 q 364 364 400 340 q 477 290 477 200 q 477 111 410 51 q 377 21 331 5 q 285 -12 241 -12 l 225 -12 q 160 -12 108 17 q 55 45 55 79 q 55 113 92 113 q 97 113 148 87 q 199 62 248 62 q 297 62 334 97 q 372 132 372 188 q 372 275 286 304 q 279 306 252 312 q 226 317 213 323 q 199 330 199 347 q 199 369 248 388 q 296 407 318 428 q 357 468 357 508 q 357 549 333 569 q 309 589 270 589 q 232 589 192 573 q 186 570 159 557 q 133 543 125 543 z"},";":{"x_min":0,"x_max":295,"ha":295,"o":"m 229 417 q 229 386 213 368 q 198 350 174 350 l 161 348 l 155 348 q 106 348 106 386 q 105 390 105 392 l 104 402 l 104 407 q 104 439 119 457 q 134 475 156 475 l 171 477 l 180 477 l 195 475 q 227 475 227 439 l 229 427 z m 206 89 l 206 62 q 206 0 161 -65 q 116 -130 82 -130 q 64 -130 64 -112 q 64 -110 91 -72 q 118 -33 118 -3 q 118 5 110 15 q 103 25 96 37 q 90 50 90 78 q 90 106 104 121 q 118 137 144 137 l 158 137 q 186 137 196 124 q 206 111 206 89 z"},"J":{"x_min":0,"x_max":458,"ha":458,"o":"m 228 638 q 228 688 334 688 l 345 687 l 355 687 q 373 687 392 671 q 410 655 410 641 q 410 626 398 591 q 386 555 381 510 q 376 466 367 314 q 358 163 336 101 q 313 40 263 4 q 212 -32 152 -32 l 141 -32 q 85 -32 48 -7 q 11 18 11 49 l 11 58 q 11 69 22 81 q 33 93 47 93 q 61 93 91 80 q 121 66 148 66 q 176 66 201 94 q 227 122 241 170 q 269 262 269 458 q 269 527 262 548 q 255 570 248 583 l 240 599 q 228 625 228 638 z"},"V":{"x_min":0,"x_max":638,"ha":638,"o":"m 331 160 q 340 160 405 323 q 470 486 485 529 q 500 573 505 608 q 511 643 516 651 q 532 679 578 679 l 591 679 q 636 679 636 641 q 636 625 594 564 q 580 544 476 304 q 372 64 365 51 q 341 7 305 7 q 269 7 249 56 q 239 77 220 147 q 201 217 188 258 q 175 300 143 406 q 112 512 105 531 q 99 549 76 581 q 53 612 53 636 q 53 661 73 671 q 84 678 120 678 q 157 678 177 665 q 198 653 203 640 q 208 627 212 591 q 215 555 219 530 q 224 506 272 333 q 320 160 331 160 z"},"\"":{"x_min":0,"x_max":401,"ha":401,"o":"m 310 709 l 322 709 q 354 709 354 688 l 354 675 q 352 660 352 649 l 347 617 q 347 541 320 465 q 313 447 289 447 l 286 448 q 271 448 268 461 q 264 483 264 575 l 264 578 l 264 584 l 263 595 l 263 605 l 263 618 l 263 657 l 265 683 q 265 709 310 709 z m 184 639 q 184 596 155 473 q 149 448 126 448 l 117 448 q 98 448 98 468 l 97 475 q 97 478 97 481 l 96 488 l 96 495 l 96 501 q 96 505 96 508 l 95 515 q 95 519 95 522 l 95 529 q 95 532 95 536 l 94 542 q 94 549 94 556 l 93 569 q 93 573 93 576 l 93 583 q 93 589 93 596 l 92 606 l 92 626 l 92 639 l 92 646 q 92 687 102 698 q 111 709 142 709 l 151 709 q 187 709 187 680 l 187 677 l 187 671 l 186 658 q 184 645 184 639 z"},"7":{"x_min":0,"x_max":544,"ha":544,"o":"m 158 664 l 169 664 l 180 664 l 202 662 l 311 662 q 440 662 473 656 q 506 651 506 630 l 506 621 q 506 604 495 579 q 484 555 420 429 q 355 304 326 243 q 296 183 266 102 q 236 21 232 13 q 218 -14 183 -14 q 163 -14 152 -8 q 141 -2 141 21 q 141 62 262 301 q 384 539 384 551 q 384 576 313 576 q 243 576 181 564 q 118 553 118 553 q 83 553 83 588 q 83 624 104 644 q 126 664 158 664 z"},"S":{"x_min":0,"x_max":553,"ha":553,"o":"m 47 123 q 47 145 58 155 q 69 165 81 165 q 94 165 126 134 q 158 103 192 85 q 227 68 278 68 q 329 68 363 97 q 397 127 397 174 q 397 220 354 255 q 336 271 248 316 q 160 362 130 394 q 85 443 85 515 q 85 587 142 637 q 171 663 212 677 q 253 691 294 691 q 336 691 392 680 q 447 670 460 661 q 496 637 496 580 q 496 568 487 555 q 479 542 460 542 q 453 542 419 570 q 385 597 359 609 q 333 621 302 621 q 247 621 215 594 q 184 568 184 527 q 184 486 222 454 q 245 434 330 392 q 416 350 444 321 q 499 265 499 187 q 499 109 438 53 q 376 -3 276 -3 l 259 -3 q 238 -3 173 9 q 107 21 90 32 q 72 43 60 67 q 47 91 47 109 z"},"}":{"x_min":0,"x_max":382,"ha":382,"o":"m 222 -35 q 206 -112 138 -142 q 99 -159 69 -159 q 39 -159 39 -151 l 39 -144 q 39 -126 78 -99 q 116 -71 130 -39 q 145 -7 145 84 q 145 176 161 211 q 178 247 207 268 l 216 274 q 233 285 233 285 q 233 292 210 311 q 188 330 175 356 q 163 382 163 443 l 171 564 q 171 611 158 631 q 146 651 116 677 q 86 702 86 723 q 86 735 103 735 l 114 735 q 147 735 179 721 q 211 707 229 682 q 257 645 257 572 l 246 424 q 246 383 258 362 q 270 340 299 324 q 328 307 328 290 q 328 272 294 254 q 259 237 244 208 q 229 180 229 92 q 229 4 222 -35 z"},"Z":{"x_min":0,"x_max":598,"ha":598,"o":"m 113 577 q 85 577 85 619 q 85 661 131 677 q 152 685 280 685 l 298 685 l 316 684 l 370 684 q 509 684 527 681 q 560 676 560 647 q 560 618 377 368 q 193 118 193 97 q 193 75 275 75 q 356 75 398 85 q 440 94 474 105 q 509 117 521 117 q 549 117 549 74 q 549 53 533 36 q 517 19 491 11 q 465 4 341 4 l 323 5 l 269 5 q 95 5 74 9 q 43 16 43 44 q 43 73 228 327 q 413 581 413 598 q 413 615 345 615 q 277 615 237 608 q 198 601 161 589 q 125 577 113 577 z"},"x":{"x_min":0,"x_max":511,"ha":511,"o":"m 456 36 q 456 5 379 5 q 334 5 318 25 q 314 31 304 56 q 293 81 289 90 q 250 169 239 169 q 228 169 184 97 q 171 78 160 52 q 148 26 146 22 q 130 2 87 2 l 75 2 q 39 2 39 19 q 39 23 117 118 q 196 213 196 239 q 196 266 138 353 q 118 384 94 410 q 70 436 70 451 q 70 466 82 471 q 104 481 145 481 q 187 481 202 465 q 210 457 219 433 l 222 423 q 224 418 232 402 q 265 334 275 334 q 286 334 312 375 q 337 415 347 438 q 357 461 362 467 q 375 480 418 480 q 460 480 460 464 q 460 462 390 375 q 319 287 319 255 q 319 238 387 132 q 402 108 429 79 q 456 49 456 36 z"},")":{"x_min":0,"x_max":361,"ha":361,"o":"m 289 335 l 289 313 l 289 303 q 288 231 269 157 q 225 -6 122 -113 q 80 -157 56 -157 q 33 -157 33 -140 q 33 -129 60 -92 q 88 -55 99 -39 q 196 113 196 333 q 196 495 134 614 q 123 636 103 668 q 83 700 83 712 q 83 732 100 732 l 108 732 q 133 732 173 681 q 213 629 239 570 q 289 456 289 335 z"},"&":{"x_min":0,"x_max":707,"ha":707,"o":"m 442 540 q 442 517 420 440 q 398 363 398 342 q 398 322 416 302 q 433 282 459 282 q 485 282 517 308 q 549 334 580 334 q 610 334 610 309 q 610 301 596 272 q 562 207 562 167 q 562 128 597 92 q 631 57 631 49 q 631 34 600 34 q 583 34 556 39 q 529 44 503 44 l 492 44 l 469 42 q 458 42 426 42 q 395 42 342 30 q 289 18 256 18 q 126 18 81 117 q 66 149 66 194 q 66 239 91 277 q 115 314 159 354 q 204 393 204 411 q 204 413 189 461 q 173 509 173 552 q 173 596 208 637 q 243 678 297 678 l 310 678 q 365 678 404 640 q 442 602 442 540 z m 261 533 l 262 520 q 262 499 289 450 q 298 433 306 433 l 309 433 q 334 433 363 476 q 392 520 392 549 l 392 563 q 392 590 375 610 q 358 629 334 629 l 330 629 q 303 629 282 605 q 261 581 261 545 l 261 535 z m 392 122 l 392 127 q 392 132 354 181 q 317 229 285 275 q 254 321 244 321 l 241 321 q 215 321 187 282 q 159 244 159 209 l 159 189 q 159 140 198 105 q 236 70 281 70 l 296 70 q 337 70 373 99 q 392 115 392 122 z"},"_":{"x_min":0,"x_max":536,"ha":536,"o":"m 424 -132 l 383 -132 l 377 -131 l 294 -131 l 276 -131 l 259 -131 q 17 -131 6 -129 q -5 -127 -5 -106 l -4 -101 q -4 -79 7 -76 q 18 -74 110 -74 l 140 -74 l 146 -75 l 505 -76 q 527 -76 527 -95 l 527 -105 l 527 -111 q 527 -127 517 -129 q 507 -132 424 -132 z"},"v":{"x_min":0,"x_max":502,"ha":502,"o":"m 38 442 q 38 463 52 469 q 65 476 108 476 q 150 476 166 442 q 171 431 179 390 q 187 349 202 291 q 242 129 257 129 q 271 129 335 289 q 354 338 360 356 q 365 374 373 408 q 381 443 383 447 q 398 478 448 478 q 482 478 482 451 l 482 443 q 482 427 459 386 q 436 346 388 238 q 341 130 298 53 q 272 5 239 5 q 206 5 188 38 q 184 44 159 123 q 134 201 121 245 q 108 290 95 325 q 82 361 60 389 q 38 416 38 435 z"},"O":{"x_min":0,"x_max":728,"ha":728,"o":"m 397 699 l 418 699 q 524 699 594 616 q 631 571 648 515 q 664 459 664 407 l 664 373 q 664 308 639 232 q 613 157 568 104 q 476 -6 351 -6 l 341 -6 q 225 -6 155 77 q 86 161 86 296 l 86 308 q 86 466 183 589 q 223 640 281 670 q 338 699 397 699 z m 196 325 l 196 299 q 196 199 240 130 q 260 98 290 81 q 320 64 351 64 l 357 64 q 358 64 359 64 q 399 64 433 86 q 500 129 533 244 q 549 298 549 360 l 549 395 q 549 489 509 556 q 489 590 458 608 q 428 627 395 627 l 381 627 q 345 627 310 603 q 240 554 212 442 q 196 377 196 325 z"},"(":{"x_min":0,"x_max":363,"ha":363,"o":"m 322 732 q 338 732 338 720 l 338 713 q 338 704 311 667 q 283 630 259 591 q 234 552 215 493 q 177 374 177 225 q 177 76 240 -41 q 289 -130 289 -138 q 289 -155 269 -155 q 239 -155 201 -107 q 162 -59 135 1 q 82 121 82 245 l 82 267 q 82 412 151 550 q 192 631 242 682 q 293 732 322 732 z"},"C":{"x_min":0,"x_max":647,"ha":647,"o":"m 607 577 q 607 530 576 530 q 566 530 532 558 q 460 614 376 614 q 292 614 231 534 q 170 453 170 330 q 170 208 224 141 q 277 75 362 75 q 417 75 475 102 q 567 146 574 146 q 593 146 593 120 q 593 105 574 81 q 555 56 517 36 q 443 -1 363 -1 q 148 -1 81 184 q 61 241 61 295 l 61 328 q 61 400 86 469 q 111 539 157 588 q 203 637 260 661 q 318 686 378 686 l 393 686 q 505 686 561 656 q 580 646 593 622 q 607 599 607 577 z"},"W":{"x_min":0,"x_max":899,"ha":899,"o":"m 837 661 q 878 661 878 618 q 878 601 860 565 q 843 529 781 342 q 719 155 704 116 q 688 78 669 59 q 649 40 637 40 q 611 40 596 57 q 580 74 565 113 q 550 151 510 306 q 470 461 466 461 q 457 461 401 308 q 346 155 315 98 q 284 41 255 41 q 212 41 191 98 q 175 142 139 321 q 104 500 89 555 q 73 609 73 625 q 73 640 86 653 q 99 667 114 667 l 116 667 q 178 667 192 619 q 200 597 207 540 q 215 483 243 347 q 271 210 280 210 q 289 210 351 389 q 358 411 382 487 l 402 555 l 408 577 l 415 598 q 431 635 453 647 l 473 653 q 500 653 514 644 q 528 634 537 612 q 547 589 556 540 q 565 491 597 354 q 628 216 637 216 q 658 216 746 507 q 753 530 762 566 q 771 603 774 610 q 784 639 802 650 q 821 661 837 661 z"},"A":{"x_min":0,"x_max":655,"ha":655,"o":"m 361 680 q 404 680 429 618 q 435 605 489 415 q 544 225 556 190 q 569 155 585 130 q 602 104 602 80 q 602 56 581 38 q 560 21 517 21 q 475 21 464 44 q 461 51 458 76 q 447 176 425 196 q 403 217 314 217 q 225 217 205 199 q 186 182 165 113 q 157 87 152 63 q 147 39 145 35 q 136 18 105 18 q 75 18 58 33 q 42 49 42 72 q 42 94 74 141 q 106 188 186 387 q 265 586 283 620 q 301 655 319 667 q 336 680 361 680 z m 404 285 l 404 291 q 404 305 348 548 q 345 559 342 559 l 340 559 q 337 559 326 523 l 283 399 l 269 360 q 269 357 264 347 q 260 337 258 331 q 256 325 247 306 q 239 287 239 285 l 239 280 q 239 275 318 275 l 354 274 l 378 274 q 404 274 404 285 z"},"f":{"x_min":0,"x_max":356,"ha":356,"o":"m 85 -26 q 66 -15 66 20 q 66 32 79 65 q 108 144 108 294 q 108 350 101 367 q 94 385 84 402 q 73 419 73 433 q 73 447 98 484 q 122 521 140 572 q 188 712 316 712 q 357 712 376 700 q 396 687 396 677 l 396 668 q 396 656 385 645 q 374 634 353 634 l 298 641 q 269 641 249 614 q 229 587 229 545 q 229 502 268 479 q 307 456 307 439 q 307 422 273 403 q 239 383 229 354 q 199 270 199 93 l 200 34 q 200 1 179 -15 q 159 -32 127 -32 q 95 -32 85 -26 z"},"Q":{"x_min":0,"x_max":731,"ha":731,"o":"m 522 36 q 522 14 585 -28 q 647 -69 647 -74 q 647 -92 562 -92 l 550 -92 q 476 -92 364 -44 q 252 3 204 52 q 156 100 126 190 q 96 280 96 360 q 96 511 177 605 q 221 655 270 675 q 318 695 377 695 q 498 695 569 613 q 607 569 628 512 q 648 455 648 398 l 648 371 q 648 233 563 107 q 522 47 522 36 z m 194 330 l 194 303 q 194 203 238 139 q 262 106 292 90 q 322 74 349 74 q 376 74 389 85 q 402 96 418 125 q 434 153 466 179 q 498 206 505 218 q 543 276 543 372 l 543 397 q 543 494 503 558 q 462 621 394 622 l 387 622 q 353 622 316 601 q 280 581 252 538 q 194 449 194 330 z"},"w":{"x_min":0,"x_max":732,"ha":732,"o":"m 84 473 l 99 473 q 142 473 159 430 q 165 414 172 368 q 206 155 230 155 q 248 155 289 277 q 296 301 312 360 q 328 419 334 431 q 353 465 387 465 q 421 465 435 438 q 437 433 467 293 q 497 154 511 154 q 530 154 572 274 q 585 312 602 372 q 618 431 620 434 q 637 471 677 471 q 702 471 702 434 q 702 378 576 88 q 546 20 513 20 l 500 20 q 476 20 452 66 q 436 98 404 201 q 372 304 366 304 q 360 304 321 208 q 282 112 257 70 q 232 27 208 27 q 168 27 149 78 q 146 88 131 149 q 116 210 104 251 q 93 292 71 347 q 48 403 48 427 q 48 450 60 462 q 72 473 84 473 z"},"-":{"x_min":0,"x_max":362,"ha":362,"o":"m 299 308 q 321 308 321 291 l 321 281 l 321 278 l 320 265 q 319 262 319 259 q 319 237 298 232 q 288 230 179 230 l 172 230 l 162 229 l 137 229 l 133 229 l 116 229 l 102 229 l 67 229 q 48 229 48 243 l 48 258 l 49 268 l 50 280 q 50 299 70 304 q 83 307 193 307 l 246 308 z"},"E":{"x_min":0,"x_max":583,"ha":583,"o":"m 449 366 q 449 291 393 291 q 390 291 357 300 q 325 309 283 309 q 241 309 224 290 q 208 270 208 198 q 208 126 226 101 q 245 76 304 76 q 364 76 395 83 q 426 89 458 97 q 490 105 497 105 q 522 105 522 84 q 522 36 481 18 q 454 5 360 5 l 303 5 q 176 5 107 20 q 68 28 68 64 q 68 67 83 97 q 98 126 104 164 q 129 314 129 490 q 129 565 116 597 q 103 628 103 636 q 103 658 137 665 q 219 683 368 683 l 442 683 q 487 683 508 671 q 528 659 528 625 q 528 590 501 590 q 500 590 500 590 q 489 590 471 596 q 413 612 329 612 q 279 612 261 587 q 229 542 229 452 q 229 412 305 412 q 326 412 350 418 l 364 422 q 387 429 392 429 q 426 429 437 414 q 449 398 449 366 z"},"s":{"x_min":0,"x_max":443,"ha":443,"o":"m 236 489 q 388 489 388 420 q 388 379 362 379 q 354 379 309 403 q 263 427 230 427 q 198 427 177 411 q 157 395 157 369 q 157 343 186 322 q 194 317 264 283 q 333 250 355 227 q 391 190 391 144 l 391 132 q 391 105 376 78 q 362 51 337 33 q 289 -3 224 -3 l 211 -3 q 132 -3 86 18 q 41 38 41 77 l 41 87 q 41 122 72 122 q 74 122 124 90 q 173 58 214 58 q 254 58 276 77 q 299 95 299 124 q 299 153 266 177 q 250 188 187 218 q 123 248 95 279 q 68 310 68 361 q 68 412 113 450 q 158 489 224 489 z"},">":{"x_min":0,"x_max":572,"ha":572,"o":"m 411 289 q 411 298 281 365 q 151 432 124 450 q 82 479 82 521 q 82 538 90 538 l 96 538 q 104 538 173 500 q 242 463 355 403 q 469 343 478 338 q 513 317 513 290 q 513 262 477 243 q 114 46 87 46 q 75 46 75 66 l 75 74 q 75 105 110 129 q 145 153 278 219 q 411 286 411 289 z"},"l":{"x_min":0,"x_max":292,"ha":292,"o":"m 90 678 q 90 712 163 712 q 199 712 208 700 q 216 688 216 666 q 216 644 212 592 q 208 539 205 474 l 203 455 l 203 446 l 201 427 l 195 307 l 194 289 l 193 226 q 193 158 198 133 q 203 108 214 85 q 226 61 226 50 q 226 26 208 15 q 190 3 138 3 l 130 3 q 102 3 89 17 q 76 31 76 51 l 76 58 q 76 62 79 86 q 82 110 86 159 l 87 176 l 88 185 l 89 203 l 90 211 l 94 257 l 95 276 q 110 473 110 518 l 111 545 l 111 571 q 111 604 101 641 q 90 678 90 678 z"},"8":{"x_min":0,"x_max":553,"ha":553,"o":"m 482 549 q 482 505 466 472 q 449 440 417 407 q 385 374 385 371 q 385 369 416 342 q 447 314 465 284 q 482 253 482 207 q 482 161 465 122 q 432 44 351 11 q 308 -7 259 -7 q 171 -7 120 39 q 68 85 68 153 l 68 174 q 68 218 90 254 q 112 290 130 306 q 147 322 165 336 q 183 351 183 358 q 183 365 158 388 q 134 412 121 437 q 108 463 108 501 q 108 540 124 576 q 140 613 171 640 q 231 692 309 692 q 388 692 435 652 q 482 611 482 549 z m 303 410 l 310 410 q 340 410 368 448 q 396 487 396 525 l 396 529 q 396 565 372 593 q 348 620 306 620 l 295 620 q 254 620 225 591 q 195 561 195 523 l 195 517 l 196 514 q 196 474 232 442 q 268 410 303 410 z m 391 167 l 391 179 q 391 226 355 264 q 307 317 257 317 l 250 317 q 219 317 190 277 q 160 238 160 202 l 159 194 l 159 177 q 159 134 192 98 q 224 62 269 62 l 285 62 q 325 62 358 92 q 391 122 391 167 z"},"\\":{"x_min":0,"x_max":426,"ha":426,"o":"m 393 -49 q 393 -63 365 -63 q 337 -63 327 -49 q 316 -34 301 8 q 49 687 49 715 q 49 728 75 728 q 101 728 111 718 q 120 708 132 679 q 199 509 236 398 q 273 287 376 9 q 393 -37 393 -49 z"},"e":{"x_min":0,"x_max":504,"ha":504,"o":"m 446 97 q 446 67 386 35 q 327 2 266 2 l 244 2 q 208 2 171 18 q 99 48 69 125 q 54 167 54 210 l 54 222 q 54 273 74 324 q 114 424 208 466 q 255 487 314 487 q 373 487 416 448 q 458 409 458 349 l 458 339 q 458 293 420 273 q 399 261 301 249 q 204 237 192 234 q 151 223 151 189 q 151 136 194 100 q 224 75 277 75 q 307 75 362 97 q 417 119 430 119 q 446 119 446 97 z m 367 333 l 367 346 q 367 381 340 401 q 314 422 286 422 l 276 422 q 268 420 261 420 q 221 420 189 379 q 157 337 157 313 l 157 308 q 157 297 176 297 l 199 297 l 202 297 l 264 302 l 308 307 l 319 308 q 367 308 367 333 z"},"b":{"x_min":0,"x_max":550,"ha":550,"o":"m 88 661 q 88 689 107 699 q 126 709 155 709 q 185 709 196 698 q 207 688 207 650 q 207 648 201 583 q 196 519 196 490 q 196 460 227 460 q 228 460 258 465 q 288 471 321 471 q 353 471 388 453 q 422 435 446 405 q 491 348 491 247 q 491 146 434 74 q 376 2 296 2 l 286 2 q 261 2 222 15 q 183 28 177 28 q 170 28 156 24 q 142 20 126 20 q 110 20 100 35 q 89 50 89 83 l 96 174 q 101 249 101 279 l 101 290 q 102 302 102 313 l 103 337 l 103 360 l 104 417 l 105 462 l 107 518 q 107 577 105 590 q 104 603 96 626 q 88 650 88 661 z m 315 419 l 303 419 q 284 419 258 403 q 190 362 190 216 l 190 171 q 190 64 264 64 l 277 64 q 294 64 318 78 q 342 92 362 129 q 394 186 394 263 l 394 284 q 394 342 371 381 q 348 419 315 419 z"},"%":{"x_min":0,"x_max":796,"ha":796,"o":"m 358 546 l 358 529 q 358 450 314 393 q 270 335 212 335 l 197 335 q 147 335 115 380 q 82 424 82 489 l 82 494 q 82 571 123 629 q 164 687 226 687 l 236 687 l 241 687 q 296 687 327 644 q 358 602 358 546 z m 194 -6 l 186 -6 q 163 -6 163 2 q 163 7 177 30 q 377 353 573 637 q 603 680 628 680 l 637 680 q 660 680 660 671 q 660 666 646 643 q 445 320 250 36 q 220 -6 194 -6 z m 738 199 l 738 188 q 738 104 693 49 q 648 -7 586 -7 l 581 -7 q 530 -7 498 34 q 465 74 465 138 l 465 149 q 465 232 510 288 q 555 343 613 343 l 627 343 q 674 343 706 303 q 738 263 738 199 z m 285 540 q 285 579 269 604 q 252 628 231 628 l 229 628 q 205 628 183 595 q 161 562 161 515 q 160 508 160 505 l 160 491 l 160 484 l 160 480 q 160 439 174 414 q 188 388 212 388 l 214 388 q 236 388 260 418 q 283 449 283 498 l 284 501 l 284 505 l 285 515 z m 668 193 l 667 210 q 667 236 652 259 q 637 282 619 282 l 608 282 q 581 282 562 241 q 544 200 544 159 l 544 132 q 544 100 558 71 q 572 43 597 43 l 600 43 q 632 43 650 84 q 669 125 669 169 l 669 190 z"},"m":{"x_min":0,"x_max":813,"ha":813,"o":"m 745 90 q 745 21 695 21 l 683 21 q 660 21 654 56 q 642 122 642 227 l 643 269 q 643 332 623 361 q 602 390 569 390 q 523 390 502 336 q 469 253 469 147 l 470 129 q 471 106 471 95 q 471 57 442 39 q 425 29 387 29 q 349 29 340 40 q 332 50 332 63 q 332 76 340 118 q 348 160 348 254 q 348 348 335 372 q 322 396 284 396 q 263 396 234 373 q 205 349 192 314 q 179 278 169 169 q 159 60 154 42 q 149 25 122 25 q 95 25 80 45 q 64 65 64 89 l 64 107 l 67 125 l 72 141 l 77 158 q 82 179 88 279 q 94 379 103 425 q 108 455 132 455 q 146 455 172 439 q 199 424 215 424 q 232 424 269 439 q 306 454 344 454 q 383 454 414 437 q 420 434 438 418 q 456 403 460 403 q 464 403 520 436 q 575 468 615 468 q 683 468 715 413 q 739 373 739 282 q 739 268 738 240 l 736 198 q 736 175 738 159 l 740 142 q 745 110 745 106 z"},"#":{"x_min":0,"x_max":589,"ha":589,"o":"m 509 247 q 509 223 494 214 q 487 209 450 205 q 414 201 402 185 q 390 169 377 111 q 365 53 360 41 q 349 14 314 14 q 295 14 295 38 q 295 42 309 105 q 323 168 323 183 q 323 198 242 198 q 220 198 210 177 q 210 176 195 111 q 180 46 170 28 q 160 10 135 10 q 111 10 111 26 q 111 33 124 89 q 137 145 137 170 q 137 191 101 200 q 64 208 64 226 q 64 248 81 259 q 87 263 120 269 q 152 275 163 286 q 188 310 188 391 q 188 411 144 417 q 100 424 100 447 q 100 470 121 479 q 127 481 161 486 q 195 491 206 501 q 217 512 233 581 q 250 649 253 656 q 264 675 289 675 q 313 675 313 655 q 313 644 300 584 q 287 524 287 510 q 287 491 366 491 q 390 491 398 510 q 400 512 414 574 q 427 637 438 654 q 448 671 472 671 q 496 671 496 653 q 496 649 485 599 q 474 549 474 524 q 474 500 501 490 q 545 476 545 456 q 545 431 507 423 q 447 412 440 400 q 420 366 420 305 q 420 286 426 282 q 431 277 470 272 q 509 268 509 247 z m 378 415 l 378 417 q 378 424 351 424 l 328 424 l 325 423 l 286 420 q 264 420 258 405 q 225 322 225 271 l 225 270 q 225 265 234 265 l 242 265 l 244 265 l 268 267 q 282 270 290 270 l 292 270 l 295 271 l 311 271 q 338 271 345 286 q 350 295 355 324 l 356 330 l 357 333 l 358 338 q 364 368 371 391 q 378 415 378 415 z"},",":{"x_min":0,"x_max":281,"ha":281,"o":"m 134 127 l 148 127 q 173 127 185 115 q 197 104 197 75 l 197 56 q 196 48 196 44 q 196 -12 151 -76 q 107 -141 74 -141 l 68 -141 q 54 -141 54 -125 l 54 -121 q 55 -115 69 -98 q 109 -51 109 -15 q 109 -15 109 -14 q 108 -5 102 3 q 81 29 81 61 q 81 127 134 127 z"},"n":{"x_min":0,"x_max":563,"ha":563,"o":"m 358 473 q 431 473 464 425 q 486 393 486 288 l 484 180 q 484 140 488 126 q 491 111 497 95 q 502 79 502 69 l 502 61 q 502 43 489 34 q 476 24 429 24 q 404 24 395 41 q 386 58 386 96 l 385 119 l 386 199 q 386 327 371 360 q 351 406 307 406 q 276 406 250 388 q 225 370 209 338 q 177 270 177 107 q 177 62 168 47 q 151 20 120 20 l 109 20 q 81 20 68 29 q 56 38 56 61 q 56 84 65 110 q 86 166 86 292 l 85 316 l 85 353 l 87 421 q 87 446 96 456 q 105 465 135 465 q 165 465 187 442 q 209 418 212 418 q 215 418 268 446 q 320 473 358 473 z"},"h":{"x_min":0,"x_max":559,"ha":559,"o":"m 376 303 q 376 399 316 399 q 285 399 259 378 q 232 357 217 319 q 192 260 192 133 l 194 66 q 194 35 173 21 q 153 6 123 6 q 93 6 83 19 q 73 31 73 44 l 73 58 q 73 60 84 110 q 96 161 103 282 q 110 403 110 483 q 110 563 109 577 q 107 590 104 620 q 100 647 100 660 q 100 662 100 663 q 100 697 150 697 q 187 697 198 681 q 209 665 209 622 l 203 480 q 203 455 221 455 q 226 455 266 469 q 305 482 339 482 q 405 482 442 429 q 469 391 469 296 l 466 167 q 466 147 471 111 q 476 74 476 70 q 476 33 461 24 q 447 15 416 15 q 385 15 373 36 q 366 46 366 101 q 366 156 371 223 q 376 289 376 303 z"},"z":{"x_min":0,"x_max":479,"ha":479,"o":"m 64 432 q 64 484 150 484 l 163 484 l 176 484 l 241 483 l 268 482 l 346 481 q 414 481 419 479 q 436 475 436 460 q 436 435 410 396 q 385 358 281 233 q 178 109 178 85 q 178 71 238 71 q 298 71 348 83 q 398 95 406 95 q 433 95 433 62 q 433 2 350 2 q 349 2 348 2 l 284 2 l 271 3 l 245 3 q 232 4 219 4 l 192 5 q 179 5 166 5 l 140 6 l 114 6 q 61 6 53 8 q 38 13 38 33 q 38 53 60 86 q 81 119 190 254 q 299 389 299 405 q 299 416 244 416 q 188 416 145 405 q 101 393 91 393 q 64 393 64 432 z"},"B":{"x_min":0,"x_max":621,"ha":621,"o":"m 129 537 q 129 549 129 572 q 129 595 122 621 q 114 646 114 650 q 114 675 155 681 q 211 689 310 689 l 344 689 q 478 689 518 609 q 533 579 533 537 q 533 495 515 463 q 497 432 482 419 q 468 406 451 395 q 435 383 435 377 q 435 377 469 354 q 549 303 549 216 l 549 204 q 549 164 530 123 q 511 82 473 55 q 436 27 389 16 q 343 5 279 5 l 147 5 q 75 5 75 26 q 75 30 90 65 q 105 100 110 135 q 125 237 125 409 l 128 525 z m 220 418 q 220 402 250 402 l 265 402 l 269 402 l 301 404 q 306 404 310 404 q 358 404 399 435 q 439 465 439 512 l 440 520 l 440 528 l 440 532 q 440 573 408 593 q 375 614 317 614 l 313 613 l 305 613 l 281 612 q 256 612 243 599 q 230 585 230 549 l 227 523 q 225 504 225 501 l 220 428 z m 212 254 q 210 239 210 229 l 209 225 l 209 221 l 208 204 l 208 199 l 203 116 l 203 112 q 203 92 219 86 q 234 81 269 81 l 292 81 q 365 81 409 114 q 453 147 453 201 l 453 219 q 453 270 404 301 q 371 322 293 322 l 288 322 q 239 322 225 311 q 212 300 212 254 z"},"K":{"x_min":0,"x_max":655,"ha":655,"o":"m 113 640 q 113 683 184 683 l 202 683 q 237 683 253 670 q 269 656 269 636 q 269 632 260 605 q 233 527 233 438 q 233 410 251 410 q 277 410 370 518 q 427 584 443 620 q 459 657 467 664 q 486 681 534 681 q 582 681 582 662 q 582 646 512 576 q 441 506 404 459 q 367 413 367 382 q 367 352 475 188 q 518 122 554 80 q 590 38 590 24 q 590 4 531 4 q 472 4 446 33 q 436 44 416 95 q 396 146 347 218 q 297 290 273 290 q 249 290 233 249 q 222 217 222 179 q 222 140 227 112 l 234 70 q 234 43 213 24 q 192 5 147 5 q 85 5 85 35 l 85 48 l 89 62 l 101 91 q 111 119 114 160 q 131 388 131 551 q 131 571 122 599 q 113 626 113 640 z"},"R":{"x_min":0,"x_max":640,"ha":640,"o":"m 240 66 q 240 10 163 10 q 86 10 86 57 q 86 77 99 104 q 112 130 116 158 q 138 344 138 561 q 138 604 133 630 q 127 656 127 658 q 127 674 147 681 q 167 688 223 688 l 265 689 l 322 689 q 541 689 541 513 q 541 426 464 362 q 428 332 428 310 q 428 289 490 162 q 511 119 541 85 q 570 50 570 30 q 570 10 524 10 q 479 10 452 37 q 437 53 401 133 q 365 213 345 240 q 313 284 277 284 q 253 284 234 251 q 224 232 224 189 q 224 146 232 111 q 240 76 240 66 z m 222 387 q 222 368 243 368 l 261 368 l 265 369 l 269 369 q 388 369 430 447 q 445 476 445 504 l 445 526 q 445 564 417 588 q 388 612 339 612 l 331 612 l 327 611 l 322 611 q 263 611 250 592 q 229 564 229 473 l 227 457 q 223 419 223 409 l 222 401 z"},"T":{"x_min":0,"x_max":591,"ha":591,"o":"m 289 2 l 276 2 q 200 2 200 41 q 200 47 217 86 q 233 124 239 174 q 260 335 260 509 q 260 562 250 580 q 241 598 209 598 q 178 598 135 583 q 93 567 91 567 q 72 567 72 597 q 72 667 115 680 q 142 688 303 688 l 341 688 l 354 687 l 380 688 l 445 688 q 528 688 541 683 q 567 672 567 638 q 567 603 560 587 q 553 572 534 572 q 532 572 494 586 q 456 601 428 601 q 401 601 389 589 q 376 577 371 539 q 347 383 347 151 q 347 126 354 104 l 371 54 q 371 2 289 2 z"},"P":{"x_min":0,"x_max":587,"ha":587,"o":"m 358 684 q 454 684 502 641 q 550 597 550 529 l 550 518 q 550 427 481 362 q 439 323 367 304 q 260 274 251 268 q 208 235 208 176 q 208 153 218 120 q 229 86 229 78 q 229 49 202 28 q 175 6 132 6 l 111 6 q 64 6 64 39 l 64 48 q 64 55 79 92 q 93 128 98 169 q 129 457 129 568 q 129 596 125 617 q 121 639 121 645 q 121 664 152 670 q 219 684 358 684 z m 331 613 l 323 613 q 263 613 247 593 q 230 573 230 489 l 228 467 q 226 450 226 445 l 220 385 l 219 377 l 218 365 q 218 346 255 346 l 271 346 q 345 346 391 388 q 438 431 438 497 l 438 515 q 438 564 407 589 q 377 613 331 613 z"},"|":{"x_min":0,"x_max":352,"ha":352,"o":"m 191 -178 l 164 -178 q 142 -178 142 -122 l 142 -102 l 142 -92 l 142 -12 l 143 8 l 143 58 l 143 88 l 143 158 l 144 188 q 144 237 144 287 l 144 307 l 144 356 l 145 366 l 145 406 l 145 436 l 145 466 l 146 496 l 146 516 l 146 545 l 146 565 l 146 596 q 146 605 146 615 l 147 625 l 147 646 l 148 705 q 148 742 171 742 l 199 742 q 221 742 221 705 l 221 615 l 221 605 l 221 516 l 220 496 q 220 471 220 446 l 220 426 l 220 386 l 219 366 l 219 327 l 219 307 l 219 277 l 218 257 l 218 207 l 218 177 l 218 157 l 217 127 q 217 112 217 97 l 217 67 l 217 47 l 216 17 q 216 -8 216 -33 l 216 -53 l 216 -83 l 215 -142 q 215 -178 191 -178 z"},"t":{"x_min":0,"x_max":365,"ha":365,"o":"m 75 475 q 109 489 116 498 q 122 507 130 541 q 138 574 150 595 q 163 616 186 616 l 192 616 q 209 616 216 603 q 223 590 227 556 q 231 522 244 508 q 257 493 289 485 q 322 476 322 463 l 322 457 q 322 431 277 417 q 233 403 223 376 q 202 322 202 191 q 202 126 217 106 q 232 85 273 79 q 313 74 313 53 q 313 32 295 21 q 266 3 226 3 l 207 3 q 103 3 103 159 l 110 332 q 110 381 103 394 q 96 406 75 417 q 55 429 55 448 q 55 467 75 475 z"},"M":{"x_min":0,"x_max":843,"ha":843,"o":"m 169 85 q 169 24 103 24 q 70 24 59 42 l 53 56 q 53 66 68 102 q 83 137 89 176 q 122 397 122 551 q 122 583 120 599 l 116 620 l 113 637 q 113 669 164 669 q 192 669 223 652 q 253 635 272 606 q 291 577 352 400 q 413 223 419 223 q 430 223 511 396 q 593 570 615 602 q 638 635 668 652 q 699 669 727 669 q 754 669 765 664 q 776 658 776 640 l 772 622 l 767 601 q 758 559 753 405 q 747 251 747 201 q 747 151 751 134 q 754 116 763 93 q 771 70 771 52 l 764 39 q 747 19 709 19 q 671 19 652 39 q 633 58 633 89 l 636 108 q 643 160 648 264 q 654 368 654 432 q 654 497 645 497 q 632 497 548 310 q 464 124 453 104 q 428 59 405 59 q 374 59 357 93 q 350 107 287 302 q 224 497 210 497 l 205 491 q 198 477 183 350 q 169 224 169 85 z"},"g":{"x_min":0,"x_max":561,"ha":561,"o":"m 246 -193 l 231 -193 q 172 -193 120 -168 q 67 -143 67 -112 q 67 -81 99 -81 q 109 -81 161 -97 q 213 -114 249 -114 q 304 -114 340 -70 q 375 -27 375 35 q 375 45 371 45 q 367 45 351 38 q 307 19 260 19 q 214 19 178 41 q 142 63 121 97 q 82 159 82 272 q 82 320 96 364 q 127 457 202 491 q 240 509 275 509 l 288 509 q 320 509 356 494 l 401 475 l 406 478 l 417 485 q 428 490 446 490 q 483 490 483 444 q 483 418 472 361 q 461 305 457 266 q 452 228 452 149 l 456 30 q 456 -119 335 -174 q 293 -193 249 -193 q 247 -193 246 -193 z m 258 99 l 270 99 q 285 99 309 113 q 377 155 377 294 l 377 305 q 377 372 357 404 q 336 436 294 436 l 286 436 q 235 436 196 362 q 175 322 175 256 l 174 246 l 174 235 q 174 174 198 136 q 223 99 258 99 z"},"j":{"x_min":0,"x_max":285,"ha":285,"o":"m 121 637 l 122 647 q 122 666 136 681 q 151 695 172 695 l 184 697 l 196 697 q 237 697 237 654 l 237 646 q 237 616 223 599 q 209 583 188 583 q 182 581 180 581 l 168 580 l 164 580 q 120 580 120 619 l 120 635 z m 111 252 q 112 280 112 323 q 112 367 98 398 q 83 430 83 445 q 83 460 102 471 q 120 481 163 481 l 170 481 q 190 481 202 463 q 214 445 214 414 l 214 370 q 214 224 195 34 q 187 -45 169 -92 q 152 -139 111 -170 q 70 -201 16 -201 l 8 -201 q -20 -201 -31 -190 q -42 -179 -42 -165 q -42 -151 -29 -140 q -17 -128 10 -124 q 36 -120 53 -109 q 109 -74 109 210 q 109 213 109 215 z"},"i":{"x_min":0,"x_max":283,"ha":283,"o":"m 107 623 l 107 639 q 108 645 108 648 q 108 669 125 683 q 142 697 165 697 l 183 697 q 221 697 221 670 q 223 666 223 665 l 224 655 l 224 642 q 224 621 211 603 q 199 586 178 586 q 172 584 170 584 l 160 583 l 152 583 l 137 585 q 107 585 107 623 z m 101 323 l 101 355 q 101 381 87 408 q 74 436 74 451 q 74 485 165 485 l 171 485 q 189 485 196 472 q 202 459 202 420 l 198 352 l 196 318 q 194 291 194 284 l 192 263 q 190 229 190 216 l 189 203 l 189 189 q 189 139 194 124 q 199 108 208 90 q 216 71 216 61 l 216 56 q 216 6 121 6 l 103 6 q 89 6 77 16 q 65 26 65 39 l 65 50 q 65 62 73 84 q 81 106 88 147 q 94 188 94 220 l 97 254 q 100 302 100 316 z"},"y":{"x_min":0,"x_max":506,"ha":506,"o":"m 122 475 q 167 475 182 439 q 185 432 191 403 q 197 373 227 264 q 256 154 264 154 q 278 154 331 299 q 352 354 363 412 l 365 423 l 367 434 q 369 447 371 452 q 383 481 419 481 l 430 481 q 465 481 465 451 q 465 439 443 386 q 420 333 354 165 q 289 -3 252 -69 q 214 -136 179 -166 q 144 -195 106 -195 l 94 -195 q 48 -195 48 -168 q 48 -140 94 -122 q 141 -104 170 -64 q 199 -24 199 18 q 199 60 152 195 q 104 331 97 345 q 62 420 62 437 q 62 453 76 464 q 91 475 122 475 z"},"@":{"x_min":0,"x_max":807,"ha":807,"o":"m 549 252 q 549 204 587 204 q 603 204 627 222 q 651 241 672 284 q 693 327 693 377 q 693 486 624 549 q 554 611 452 611 q 350 611 269 549 q 205 500 174 426 q 142 352 142 280 q 142 208 166 153 q 213 46 316 7 q 367 -12 422 -12 q 478 -12 528 2 q 538 5 570 18 q 602 30 615 30 q 628 30 628 24 q 628 0 550 -27 q 472 -55 403 -55 q 258 -55 166 38 q 73 132 73 289 q 73 417 154 523 q 214 603 307 640 q 376 668 451 668 q 592 668 674 587 q 755 505 755 384 q 755 280 698 205 q 674 173 641 153 q 609 133 578 133 q 547 133 534 138 l 517 149 l 504 162 l 493 170 q 487 170 447 150 q 407 131 364 131 q 322 131 290 175 q 267 207 267 270 q 267 333 313 387 q 359 441 413 441 l 434 439 l 472 434 l 490 437 l 508 442 l 526 446 q 563 446 563 407 q 563 384 556 335 q 549 285 549 252 z m 370 161 l 375 161 q 415 161 459 230 q 503 300 503 375 l 503 390 q 502 396 502 404 q 502 412 491 423 q 479 435 462 435 l 453 435 q 408 435 365 372 q 322 310 322 250 l 322 230 q 323 223 323 219 q 323 195 338 178 q 353 161 370 161 z"},".":{"x_min":0,"x_max":279,"ha":279,"o":"m 72 56 l 73 67 q 73 87 88 105 q 103 123 128 123 l 132 124 l 151 124 q 156 123 158 123 q 195 123 195 78 l 195 61 l 193 48 q 193 24 176 10 q 160 -3 141 -3 l 127 -5 l 121 -5 q 74 -5 74 27 l 72 33 l 71 43 l 71 54 z"},"p":{"x_min":0,"x_max":555,"ha":555,"o":"m 96 -194 q 43 -194 43 -156 q 43 -142 54 -115 q 64 -87 71 -49 q 77 -12 93 135 q 108 282 108 330 q 108 378 106 390 q 104 401 100 419 q 95 438 95 440 q 95 475 153 475 q 168 475 193 465 q 217 456 222 456 q 228 456 265 473 q 303 491 334 491 l 344 491 q 407 491 455 439 q 502 386 502 312 l 502 288 q 502 223 478 169 q 432 64 347 31 q 309 16 258 16 q 208 16 188 1 q 169 -13 169 -47 q 169 -63 177 -93 q 184 -123 184 -139 q 184 -155 167 -174 q 149 -194 116 -194 z m 196 167 q 196 119 217 94 q 238 70 273 70 l 277 70 l 281 70 q 302 70 325 85 q 348 100 364 129 q 400 192 400 276 l 400 287 q 400 349 376 386 q 353 422 322 422 l 306 422 q 288 422 263 405 q 197 362 197 232 l 196 222 l 196 207 z"},"X":{"x_min":0,"x_max":641,"ha":641,"o":"m 574 33 q 574 3 501 3 l 484 3 q 435 3 417 24 q 408 34 404 64 q 400 94 387 127 q 330 262 314 262 q 294 262 227 146 q 196 94 192 63 q 187 32 184 27 q 167 3 99 3 q 51 3 51 26 q 51 48 83 80 q 116 113 154 168 q 261 323 261 351 q 261 368 207 467 q 153 566 126 601 q 98 635 98 649 q 98 674 124 681 q 138 684 189 684 q 240 684 257 660 q 259 657 265 622 q 271 586 292 539 q 332 450 350 450 q 367 450 436 579 q 452 608 455 634 q 459 660 464 666 q 479 686 524 686 q 569 686 579 681 q 590 676 590 659 q 590 643 557 608 q 524 573 493 527 q 399 388 399 363 q 399 338 485 183 q 514 130 544 91 q 574 51 574 33 z"},"*":{"x_min":0,"x_max":456,"ha":456,"o":"m 260 692 q 291 692 291 665 l 278 578 q 278 572 285 572 q 292 572 323 590 q 354 609 366 609 q 396 609 396 588 l 396 582 q 396 554 362 532 q 328 510 328 506 q 328 496 340 475 q 353 455 353 435 q 353 415 334 415 l 291 421 q 280 421 271 405 q 261 388 251 388 l 230 391 l 216 389 q 204 389 198 404 q 191 419 183 419 l 163 417 l 129 414 q 118 414 118 437 q 118 450 151 488 q 164 502 164 512 q 164 515 146 524 q 129 533 124 537 q 101 558 101 582 q 101 610 134 610 q 149 610 180 590 q 210 569 219 569 q 225 569 225 600 l 224 646 q 224 670 231 681 q 238 692 260 692 z"},"Y":{"x_min":0,"x_max":615,"ha":615,"o":"m 75 654 q 75 684 160 684 q 210 684 227 656 q 232 648 234 629 q 236 609 239 594 q 242 579 262 530 q 320 387 331 387 q 347 387 423 536 q 447 583 452 599 q 457 615 460 635 q 463 655 468 662 q 485 685 538 685 q 590 685 590 664 l 590 656 q 590 647 557 605 q 523 562 464 459 q 404 356 388 320 q 361 259 361 142 q 361 121 371 91 q 381 61 381 55 q 381 0 299 0 l 273 0 q 249 0 232 13 q 215 26 215 42 q 215 59 228 84 q 255 143 255 243 q 255 287 222 365 q 144 544 110 589 q 75 633 75 646 z"},"c":{"x_min":0,"x_max":480,"ha":480,"o":"m 440 414 l 440 406 q 440 391 428 380 q 417 369 405 369 q 393 369 352 393 q 312 417 271 417 q 217 417 181 364 q 146 312 146 234 q 146 156 181 115 q 216 73 271 73 q 306 73 353 93 q 399 113 412 113 q 432 113 432 94 q 432 64 376 31 q 321 -1 262 -1 l 239 -1 q 199 -1 161 16 q 124 34 98 63 q 46 122 46 215 l 46 227 q 46 274 63 321 q 100 425 192 466 q 235 484 292 484 q 350 484 395 464 q 440 443 440 414 z"},"!":{"x_min":0,"x_max":311,"ha":311,"o":"m 184 695 l 200 695 q 219 695 228 686 q 236 677 236 650 l 236 645 l 236 640 q 236 614 212 423 q 188 232 188 229 q 181 195 154 195 l 149 195 q 127 195 127 231 l 127 536 q 127 641 134 664 q 143 695 184 695 z m 88 54 q 88 120 158 120 l 160 120 l 162 120 l 174 119 q 176 118 178 118 q 208 118 208 74 l 208 64 l 207 56 q 207 32 190 15 q 174 -1 145 -1 l 128 -1 l 117 0 q 88 0 88 38 z"},"/":{"x_min":0,"x_max":415,"ha":415,"o":"m 411 718 q 411 712 394 670 q 243 292 101 -17 q 77 -70 44 -70 l 35 -70 q 12 -70 12 -60 q 12 -50 43 24 l 58 59 q 74 97 78 105 q 82 113 90 132 q 98 151 110 180 q 123 209 141 253 q 159 297 205 403 q 250 509 283 589 q 316 668 328 692 q 346 729 378 729 q 411 729 411 718 z"},"[":{"x_min":0,"x_max":357,"ha":357,"o":"m 290 731 l 301 731 q 336 731 336 714 q 336 697 322 688 q 307 679 276 671 q 245 664 233 653 q 221 643 215 615 q 209 586 193 312 q 176 37 176 -9 q 176 -55 188 -68 q 200 -82 243 -95 q 287 -108 287 -130 q 287 -152 254 -152 l 221 -152 l 209 -151 q 125 -151 106 -143 q 86 -135 86 -95 l 86 -72 l 87 -60 q 87 -48 87 -29 q 87 -10 108 328 q 128 666 135 691 q 141 716 164 724 q 187 731 290 731 z"},"6":{"x_min":0,"x_max":554,"ha":554,"o":"m 368 666 q 466 666 466 628 q 466 611 395 604 q 323 597 285 569 q 247 542 222 501 q 198 461 198 431 q 198 400 222 400 q 228 400 254 407 q 280 413 310 413 q 341 413 376 398 q 444 370 474 296 q 490 254 490 214 l 490 202 q 490 162 475 123 q 460 83 433 56 q 378 1 303 1 l 291 1 q 248 1 206 19 q 120 56 83 163 q 65 217 65 274 l 65 299 q 65 369 89 437 q 114 505 155 555 q 196 606 255 636 q 313 666 368 666 z m 389 209 l 389 237 q 389 289 363 326 q 337 364 293 364 l 289 364 q 241 364 210 323 q 178 282 178 220 l 178 202 q 178 142 206 102 q 233 62 275 62 l 279 62 q 324 62 356 105 q 389 148 389 209 z"},"r":{"x_min":0,"x_max":396,"ha":396,"o":"m 60 50 q 60 59 75 104 q 91 149 92 209 q 92 269 92 277 l 93 286 l 93 303 q 93 333 85 378 q 78 424 78 428 q 78 451 94 460 q 109 470 142 470 q 175 470 187 461 q 199 452 204 436 q 209 419 218 419 q 220 419 257 445 q 294 471 323 471 l 330 471 q 349 471 361 461 q 374 451 374 435 l 374 428 q 374 405 356 396 q 348 392 317 390 q 286 387 265 380 q 244 372 225 345 q 188 292 188 162 q 188 141 193 107 q 197 73 197 62 q 197 33 170 15 q 154 3 116 3 l 100 3 q 60 3 60 43 z"},"2":{"x_min":0,"x_max":548,"ha":548,"o":"m 109 501 q 88 501 88 530 q 88 558 110 585 q 133 613 164 632 q 224 668 298 668 q 372 668 426 624 q 479 580 479 503 q 479 426 429 360 q 400 322 298 228 q 196 135 196 108 q 196 89 269 89 q 341 89 397 96 l 410 98 q 428 100 434 100 q 473 100 473 69 q 473 33 451 20 q 428 6 390 6 l 269 6 l 253 7 l 237 7 q 111 7 86 11 q 61 16 61 36 q 61 76 110 134 q 160 191 229 258 q 299 325 337 376 q 375 428 375 480 q 375 532 346 559 q 318 585 274 585 q 230 585 175 543 q 119 501 109 501 z"},"{":{"x_min":0,"x_max":384,"ha":384,"o":"m 135 21 q 135 26 140 81 q 146 136 146 167 q 146 198 134 219 q 122 239 93 256 q 63 272 63 291 q 63 310 98 325 q 132 341 146 370 q 161 399 161 514 q 161 628 195 673 q 216 701 251 718 q 287 735 333 735 q 354 735 354 726 q 354 700 315 674 q 275 647 262 616 q 250 584 250 497 q 250 409 235 375 q 221 340 207 328 q 193 315 177 304 q 161 293 161 291 q 161 290 183 271 q 205 252 214 235 q 232 202 232 143 q 232 131 228 82 q 224 33 224 -1 q 224 -35 237 -55 q 250 -75 279 -99 q 308 -124 308 -147 q 308 -158 288 -158 l 277 -158 q 207 -158 171 -115 q 135 -73 135 21 z"},"9":{"x_min":0,"x_max":555,"ha":555,"o":"m 98 45 q 98 65 171 71 q 291 81 346 172 q 370 212 370 250 q 370 273 343 273 q 340 273 314 269 q 288 264 260 263 q 231 264 196 278 q 124 309 94 388 q 80 426 80 470 q 80 560 133 619 q 187 678 279 678 q 372 678 432 610 q 463 575 483 520 q 504 464 504 395 l 504 382 q 504 302 477 231 q 425 96 315 40 q 256 10 194 10 l 183 10 q 133 10 108 28 q 98 36 98 45 z m 392 488 q 392 533 364 573 q 336 614 293 614 l 289 614 q 245 614 211 570 q 177 525 177 460 l 177 437 q 177 386 204 350 q 231 314 273 314 l 277 314 q 331 314 362 354 q 393 395 393 456 l 393 474 q 392 484 392 488 z"}," ":{"x_min":0,"x_max":321,"ha":321,"o":""},"I":{"x_min":0,"x_max":336,"ha":336,"o":"m 186 3 l 131 3 q 98 3 81 14 q 64 25 64 44 q 64 49 85 86 q 106 123 112 169 q 132 317 132 518 q 132 560 125 579 q 118 597 108 614 q 98 631 98 644 q 98 668 126 680 q 144 688 194 688 l 221 688 q 262 688 275 676 q 289 664 289 655 l 289 647 q 289 642 268 607 q 248 572 243 531 q 220 361 220 171 q 220 131 226 114 q 233 98 244 78 q 254 58 254 43 q 254 28 237 16 q 219 3 186 3 z"},"H":{"x_min":0,"x_max":713,"ha":713,"o":"m 540 24 q 462 24 462 74 q 462 79 470 104 q 491 177 491 271 q 491 312 470 324 q 450 335 354 335 q 258 335 231 313 q 205 292 205 152 q 205 126 210 98 q 215 70 215 59 q 215 36 179 21 q 154 11 115 11 q 76 11 66 21 q 57 30 57 43 q 57 55 74 84 q 92 113 97 157 q 118 346 118 542 q 118 559 113 574 l 108 588 q 99 610 99 615 q 99 641 117 653 q 135 665 186 665 q 270 665 270 619 q 270 614 262 590 q 241 525 241 445 q 241 403 262 390 q 282 378 380 378 q 478 378 501 396 q 524 415 524 517 q 524 559 519 588 q 513 617 513 632 q 513 647 540 662 q 567 676 607 676 l 626 676 q 675 676 675 652 l 675 637 q 675 634 660 604 q 644 574 638 531 q 612 345 612 145 q 612 128 617 112 l 623 98 q 631 77 631 70 q 631 44 614 34 q 597 24 540 24 z"},"4":{"x_min":0,"x_max":559,"ha":559,"o":"m 92 306 q 231 511 330 632 q 362 672 395 672 q 427 672 435 660 q 443 648 443 623 l 438 558 q 437 534 431 473 q 425 413 425 360 q 425 306 440 276 q 447 263 465 245 q 482 228 482 218 q 482 181 453 156 q 424 131 424 117 q 427 92 427 73 q 427 28 408 14 q 389 -1 341 -1 q 293 -1 293 59 l 300 115 q 300 125 282 140 q 265 155 240 162 q 215 168 156 171 q 97 174 84 181 q 58 194 58 224 q 58 255 92 306 z m 340 522 l 340 533 q 340 538 338 538 q 332 538 278 457 q 224 375 196 340 l 157 290 l 152 283 q 129 256 129 252 q 129 247 155 247 l 218 247 q 293 247 307 256 q 320 265 320 308 q 322 325 323 334 q 324 342 324 351 q 325 359 326 369 q 335 459 335 467 l 336 480 q 338 493 338 497 l 339 510 q 340 519 340 522 z"},"~":{"x_min":0,"x_max":581,"ha":581,"o":"m 188 393 l 199 393 q 238 393 307 354 q 375 315 405 315 q 435 315 465 350 q 496 384 511 384 q 533 384 533 361 l 533 355 q 533 314 489 278 q 445 241 403 241 l 397 241 q 359 241 288 280 q 216 319 187 319 q 158 319 125 283 q 91 248 80 248 q 58 248 58 271 l 58 277 q 58 313 106 359 q 142 393 188 393 z"},"D":{"x_min":0,"x_max":698,"ha":698,"o":"m 78 25 l 78 33 q 78 39 89 59 q 100 80 107 99 q 113 119 118 166 q 140 373 140 537 q 140 593 129 619 q 119 646 119 657 q 119 675 156 682 q 193 689 299 689 l 333 689 q 473 689 547 617 q 587 578 612 519 q 636 461 636 388 l 636 362 q 636 288 605 212 q 575 137 522 89 q 469 41 408 22 q 347 3 244 3 l 233 3 l 223 3 l 201 3 q 78 3 78 25 z m 229 279 l 228 256 l 226 241 l 225 226 q 224 210 223 201 q 223 192 220 164 q 217 136 217 121 l 217 114 q 217 94 230 85 q 243 76 281 76 l 302 76 q 352 76 393 97 q 475 140 508 250 q 524 307 524 364 l 524 389 q 524 434 510 479 q 482 569 412 602 q 377 617 333 617 l 319 617 q 271 617 257 601 q 243 585 243 524 q 242 509 242 501 l 241 471 l 240 456 q 239 448 239 443 q 239 438 229 279 z"},"^":{"x_min":0,"x_max":543,"ha":543,"o":"m 279 688 l 287 688 q 311 688 332 656 q 340 643 382 561 q 424 479 434 462 l 461 413 q 493 356 493 348 q 493 340 471 340 l 463 340 q 431 340 400 382 q 390 396 337 496 q 284 596 281 596 q 274 596 219 495 q 163 394 148 375 q 121 342 91 342 q 62 342 62 351 q 62 357 95 414 q 129 470 138 485 l 146 499 q 155 516 158 521 q 162 526 192 582 q 223 638 240 663 q 256 688 279 688 z"},"0":{"x_min":0,"x_max":560,"ha":560,"o":"m 305 679 l 323 679 q 357 679 393 660 q 464 622 491 515 q 504 458 504 390 l 504 379 q 504 294 485 222 q 447 75 358 20 q 317 -6 266 -6 q 215 -6 181 15 q 113 57 87 160 q 74 216 74 285 l 74 295 q 74 373 92 449 q 109 524 142 576 q 175 628 218 654 q 261 679 305 679 z m 173 259 q 173 164 199 113 q 226 63 262 63 l 273 63 q 302 63 326 88 q 350 114 365 156 q 399 247 399 377 l 399 414 l 399 421 l 398 436 q 398 443 398 450 q 398 514 373 562 q 348 610 306 610 l 301 610 q 276 610 253 590 q 230 569 215 535 q 174 441 174 327 l 173 312 l 173 289 z"},"F":{"x_min":0,"x_max":550,"ha":550,"o":"m 227 447 q 228 404 291 404 q 317 404 349 412 q 381 420 396 420 q 411 420 426 398 q 441 376 441 342 q 441 283 397 283 q 390 283 366 291 q 341 298 319 298 q 251 298 231 272 q 212 246 212 159 q 212 118 218 88 q 224 59 224 51 q 224 15 163 15 l 150 15 q 72 15 72 74 q 72 82 89 112 q 106 142 112 178 q 125 264 125 401 l 126 431 l 126 475 q 126 563 115 598 q 104 633 104 635 q 104 662 152 669 q 229 682 360 682 l 436 682 q 498 682 515 668 q 532 654 532 620 q 532 586 506 586 q 497 586 473 593 q 405 613 321 613 q 269 613 254 590 q 227 547 227 447 z"},"`":{"x_min":0,"x_max":381,"ha":381,"o":"m 136 721 l 146 721 q 183 721 205 695 q 282 605 282 570 l 282 568 q 282 559 267 559 l 254 559 q 215 559 112 677 q 99 692 99 703 l 99 705 q 99 721 136 721 z"},"k":{"x_min":0,"x_max":527,"ha":527,"o":"m 85 677 q 85 697 100 704 q 114 710 149 710 q 185 710 196 690 q 202 679 202 635 l 198 571 q 189 426 189 368 q 189 309 205 309 q 236 309 310 406 q 329 430 343 441 q 370 462 429 462 q 458 462 458 444 q 458 433 409 390 q 360 347 343 323 q 326 299 326 272 q 326 246 403 139 q 423 110 456 77 q 488 44 488 29 q 488 15 441 15 l 426 15 q 386 15 364 35 q 360 39 303 130 q 246 221 230 221 q 214 221 206 196 q 198 171 198 102 q 198 66 178 47 q 158 28 126 28 q 94 28 81 36 q 67 44 67 74 q 67 83 75 129 q 83 174 86 241 q 89 309 96 416 q 102 523 102 564 q 102 605 97 629 l 93 642 l 90 654 q 85 674 85 677 z"},"u":{"x_min":0,"x_max":557,"ha":557,"o":"m 176 202 q 176 73 250 73 q 286 73 313 94 q 341 116 354 144 q 386 209 386 369 q 386 429 398 446 q 410 464 441 464 q 472 464 480 455 q 489 446 489 429 l 489 417 l 478 211 l 479 200 q 479 188 479 177 l 480 165 q 481 143 481 141 l 488 65 q 488 20 417 20 q 396 20 380 37 q 364 55 355 55 q 347 55 325 42 q 303 30 277 18 q 252 7 217 7 l 205 7 q 175 7 147 22 q 118 37 102 62 q 77 101 77 189 l 83 352 q 83 380 80 391 q 77 402 70 420 q 63 438 63 442 l 63 451 q 63 471 108 471 q 153 471 167 451 q 181 432 181 351 z"},"]":{"x_min":0,"x_max":356,"ha":356,"o":"m 85 -152 l 53 -152 q 32 -152 32 -133 q 32 -112 71 -99 q 132 -79 136 -76 q 147 -65 153 -41 q 159 -17 175 249 q 190 515 190 575 q 190 635 175 653 q 166 663 123 676 q 80 689 80 712 q 80 731 113 731 l 146 731 q 237 731 257 721 q 277 710 277 671 l 277 648 l 276 636 q 276 573 245 52 q 237 -87 229 -113 q 222 -139 197 -146 q 172 -152 85 -152 z"},"U":{"x_min":0,"x_max":688,"ha":688,"o":"m 526 639 q 526 679 588 679 q 621 679 633 669 q 654 651 654 629 q 654 607 639 577 q 624 547 619 515 q 614 484 606 335 q 598 186 570 125 q 542 65 481 30 q 420 -5 328 -5 q 213 -5 152 62 q 125 93 111 136 q 98 180 98 261 l 110 515 q 110 542 104 560 l 99 572 l 92 584 q 84 600 84 610 q 84 641 107 665 q 121 680 160 680 q 239 680 239 636 q 239 629 229 592 q 220 554 211 428 q 203 302 203 253 q 203 151 240 108 q 278 65 352 65 q 398 65 436 91 q 475 117 492 158 q 533 258 533 542 q 533 579 530 608 q 526 636 526 639 z"},"o":{"x_min":0,"x_max":546,"ha":546,"o":"m 260 -1 l 237 -1 q 207 -1 174 13 q 141 27 117 55 q 68 113 68 204 l 68 212 l 68 221 q 68 274 88 327 q 126 433 218 479 q 257 498 303 498 l 317 498 q 355 498 391 481 q 426 464 449 435 q 494 376 494 291 l 494 283 q 494 168 434 93 q 401 51 356 25 q 311 -1 260 -1 z m 264 61 l 273 61 q 320 61 355 120 q 389 178 389 256 l 389 284 q 389 346 363 389 q 337 433 299 433 l 281 433 q 237 433 202 373 q 167 314 167 232 l 167 215 q 167 153 193 107 q 219 61 264 61 z"},"N":{"x_min":0,"x_max":711,"ha":711,"o":"m 547 634 q 547 681 612 681 q 642 681 657 666 q 673 651 673 632 q 673 612 657 570 q 641 528 637 488 q 633 448 629 384 l 623 275 q 611 77 609 62 q 604 18 573 18 q 533 18 485 78 q 470 97 348 296 q 225 496 209 496 q 201 496 197 488 q 180 450 180 181 q 180 153 184 116 q 189 80 189 78 q 189 48 162 28 q 136 8 95 8 q 54 8 54 35 q 54 46 71 78 q 88 110 94 151 q 115 309 115 557 q 115 581 106 611 q 98 641 98 656 q 98 671 132 671 q 205 671 261 606 q 291 572 407 383 q 523 193 532 193 l 538 200 q 541 207 548 332 q 556 458 556 510 q 556 563 553 589 l 550 605 q 547 628 547 634 z"},"+":{"x_min":0,"x_max":580,"ha":580,"o":"m 265 516 q 271 531 309 531 l 317 531 q 336 531 336 473 l 332 365 q 332 347 339 344 q 353 338 435 338 q 518 338 518 317 l 518 309 q 518 276 509 270 q 500 264 437 264 l 399 263 q 390 262 381 262 l 363 261 q 354 261 345 261 q 321 261 321 249 l 323 167 q 323 81 322 78 q 316 62 279 62 l 271 62 q 252 62 252 128 l 255 199 l 256 218 q 256 227 256 237 q 256 258 116 258 q 70 258 70 276 l 70 284 q 70 317 78 324 q 86 332 148 332 l 223 334 q 259 334 263 339 q 264 339 264 425 q 264 511 265 516 z"},"G":{"x_min":0,"x_max":702,"ha":702,"o":"m 625 585 q 625 539 595 539 q 591 539 525 575 q 460 612 403 612 q 296 612 235 531 q 174 451 174 333 q 174 161 288 98 q 324 78 372 78 q 420 78 458 106 q 496 134 496 190 q 496 219 484 239 q 473 259 461 275 q 450 291 450 295 q 450 311 473 318 q 496 325 549 325 q 603 325 622 314 q 642 304 642 285 q 642 281 631 247 q 620 213 615 181 l 606 126 q 596 70 579 55 q 562 40 513 29 q 364 -1 358 -1 q 224 -1 143 90 q 62 181 62 326 q 62 471 149 574 q 193 627 256 657 q 318 687 382 687 l 402 687 q 573 687 610 627 q 625 604 625 585 z"},"q":{"x_min":0,"x_max":557,"ha":557,"o":"m 444 482 q 480 482 480 417 q 480 410 472 323 q 463 236 462 124 l 461 100 q 461 88 461 77 l 460 65 q 460 53 460 42 l 459 8 q 459 -57 462 -71 q 466 -85 475 -106 q 483 -127 483 -142 q 483 -191 410 -191 l 400 -191 q 377 -191 360 -180 q 342 -169 342 -148 q 342 -145 355 -97 q 367 -50 367 -25 q 367 0 354 11 q 340 21 309 21 q 305 21 285 19 q 266 17 236 17 q 207 17 173 33 q 139 50 117 77 q 68 138 68 229 l 68 242 q 68 349 130 424 q 158 457 197 476 q 237 496 268 496 l 279 496 q 314 496 350 481 q 385 466 394 466 q 402 466 417 474 q 432 482 444 482 z m 248 72 l 259 72 q 280 72 304 88 q 329 104 344 129 q 374 182 374 259 l 375 270 q 375 281 375 286 l 375 327 q 375 434 292 434 l 288 433 q 268 433 244 419 q 221 405 202 373 q 166 312 166 233 l 166 216 q 166 153 190 112 q 215 72 248 72 z"},"d":{"x_min":0,"x_max":562,"ha":562,"o":"m 386 663 q 386 683 405 696 q 424 709 459 709 l 470 709 q 490 709 498 697 q 505 684 505 641 q 505 598 484 396 q 463 195 463 157 q 463 119 470 92 q 478 65 478 60 q 478 21 411 21 q 398 21 376 31 q 353 42 346 42 q 340 42 296 24 q 252 7 216 7 q 149 7 109 61 q 69 114 69 186 l 69 210 q 69 211 69 212 q 69 260 87 312 q 125 421 213 465 q 251 484 307 484 l 343 482 q 377 482 387 501 q 397 520 397 559 q 397 598 392 629 q 386 660 386 663 z m 246 70 l 257 70 q 279 70 305 87 q 331 104 342 126 q 374 187 374 287 l 374 317 q 373 333 373 341 q 373 381 349 405 q 325 429 292 429 l 288 429 q 238 429 202 371 q 167 313 167 228 l 167 201 q 167 138 191 104 q 215 70 246 70 z"},"1":{"x_min":0,"x_max":524,"ha":524,"o":"m 293 2 l 266 2 q 226 2 191 19 q 157 35 157 55 q 157 76 187 112 q 216 149 222 175 q 240 247 240 413 q 240 498 226 518 q 211 538 177 549 q 142 560 142 573 q 142 589 169 602 q 286 659 312 659 l 319 659 q 339 659 345 645 q 350 630 350 582 l 348 512 l 346 472 q 344 442 344 424 q 344 407 339 332 q 333 256 333 208 q 333 159 353 126 q 384 72 384 59 l 384 51 q 384 34 356 18 q 328 2 293 2 z"},"5":{"x_min":0,"x_max":548,"ha":548,"o":"m 480 641 q 480 600 439 584 q 415 576 331 576 q 247 576 228 560 q 192 530 192 445 q 192 424 245 424 q 355 424 417 369 q 480 314 480 218 q 480 171 461 128 q 422 40 331 5 q 287 -12 227 -12 q 167 -12 112 13 q 56 39 56 74 q 56 109 88 109 q 101 109 151 83 q 201 58 246 58 q 307 58 348 110 q 379 149 379 211 q 379 242 364 272 q 349 303 314 323 q 280 344 177 344 q 139 344 123 358 q 107 372 107 399 q 107 426 125 516 q 142 607 155 627 q 167 647 191 653 q 215 658 279 658 q 342 658 368 660 q 394 662 413 663 q 431 665 438 665 l 452 665 q 480 665 480 641 z"}}}
